<svg xmlns="http://www.w3.org/2000/svg" width="1200" height="284.88" viewBox="0 0 1200 284.88"><defs><style>.a{fill:#fff;}.b{fill:#449df5;}.c{fill:#202528;}</style></defs><title>Artboard 1</title><path class="a" d="M19,136.5c0-86.71,19.63-118,125.82-118s125.82,31.37,125.82,118c0,74.83-19.47,125.82-125.82,125.82S19,211.47,19,136.5Z"/><path class="b" d="M176.21,19.67c-2.76,36.79-8.68,69-16.82,96.65a285.62,285.62,0,0,1-12.88,35.58,128.06,128.06,0,0,1-6.14,12.27,7.86,7.86,0,0,1-10.72,2.71l-28.15-16.55a7.87,7.87,0,0,1,8-13.56L130.4,149a25.44,25.44,0,0,0,1.74-3.56,269.31,269.31,0,0,0,12.14-33.59c7.82-26.55,13.53-57.54,16.21-93.09h0q-7.84-.26-15.69-.25C38.63,18.55,19,49.79,19,136.5c0,75,19.47,125.82,125.82,125.82s125.82-51,125.82-125.82C270.64,59.25,255,25.95,176.21,19.67ZM81.9,89.32a11.8,11.8,0,1,1,11.8,11.8A11.8,11.8,0,0,1,81.9,89.32ZM198.56,193.53a31.39,31.39,0,0,1-3.42,4.15,53.48,53.48,0,0,1-9.61,7.89c-10.66,6.93-24.23,11-40.78,11s-30.13-4.13-40.75-11.12a52.82,52.82,0,0,1-9.56-8,31.06,31.06,0,0,1-3.4-4.18h0l-.14-.22a7.86,7.86,0,1,1,13.33-8.35l.24.31q.68.86,1.43,1.65a37.46,37.46,0,0,0,6.73,5.57c8.09,5.31,18.65,8.53,32.12,8.53s24.08-3.21,32.21-8.49a37.33,37.33,0,0,0,6.79-5.55q.76-.78,1.45-1.64l.24-.31a7.86,7.86,0,0,1,13.12,8.66Zm-2.64-92.41a11.8,11.8,0,1,1,11.8-11.8A11.8,11.8,0,0,1,195.93,101.12Z"/><path class="c" d="M408.36,188.4V136.26c0-17.09-11.1-27.65-29.77-27.65-15,0-26.6,9-29.24,22.19h13c2.47-7.22,7.75-10.74,16-10.74,11.27,0,17.26,7,17.26,16.73v9.86c-3.35-3-11.63-6.34-19.73-6.34-16.73,0-29.94,9.86-29.94,24.48,0,15.5,13.21,25,29.06,25,9.34,0,17.61-4.05,20.61-7.22v5.81ZM395.68,169c-2.29,5.81-10.22,9.69-18.32,9.69-9.51,0-18.67-4.4-18.67-13.92,0-9.34,9.16-13.56,18.67-13.56,8.1,0,16,3.88,18.32,9.69Zm29.59-19.73c0,24.31,14.62,40.69,35.58,40.69,17.61,0,28.71-10.22,31.35-25.19H478.64c-1.76,8.46-8.46,13.56-17.79,13.56-13.39,0-22.19-12-22.19-29.06s8.81-29.06,22.19-29.06c9.34,0,16,5.11,17.79,13.56H492.2c-2.64-15-13.74-25.19-31.35-25.19C439.89,108.61,425.27,125,425.27,149.3Zm87.9,19.38c0,14.44,8.81,21.31,21.49,21.31A27.79,27.79,0,0,0,547,187.35V175a19.47,19.47,0,0,1-10.22,3.17c-6.69,0-10.39-3.35-10.39-10.92v-45.8h18.85V110.19H526.38V89.59H513.17v20.61H500.48v11.27h12.68Zm65.35-58.48H565.31V188.4h13.21Zm1.94-23.6A8.54,8.54,0,1,0,571.82,95,8.61,8.61,0,0,0,580.45,86.59ZM636.82,188.4l30.47-78.21H653.38l-22.72,61.48-22.9-61.48H593.49l30.3,78.21ZM731.59,165c-2.11,8.81-9.34,13.74-19,13.74-13.21,0-22.55-10.22-22.72-27h55.31V147c0-22.72-11.45-38.4-32.94-38.4-21.31,0-35.58,17.44-35.58,40.87,0,24.13,14.62,40.51,35.93,40.51,17.61,0,28.71-10.22,31.53-25Zm-19.2-45.09c13,0,19.2,10.22,19.38,21.84H690.19C692.13,128,700.59,119.88,712.39,119.88Zm44.21,59.89a9.42,9.42,0,1,0,18.85,0,9.43,9.43,0,1,0-18.85,0Zm30.65-30.47c0,24.31,14.62,40.69,35.58,40.69,17.61,0,28.71-10.22,31.35-25.19H840.62c-1.76,8.46-8.45,13.56-17.79,13.56-13.39,0-22.19-12-22.19-29.06s8.81-29.06,22.19-29.06c9.34,0,16,5.11,17.79,13.56h13.56c-2.64-15-13.74-25.19-31.35-25.19C801.87,108.61,787.25,125,787.25,149.3Zm150.43,0c0-24-14.62-40.69-35.93-40.69-21.49,0-35.93,16.73-35.93,40.69S880.26,190,901.75,190C923.06,190,937.68,173.26,937.68,149.3Zm-13.39,0c0,17.09-8.45,29.06-22.55,29.06s-22.55-12-22.55-29.06,8.45-29.06,22.55-29.06S924.29,132.21,924.29,149.3Zm44.57-75.39H955.65V188.4h13.21Zm36.81,0H992.46V188.4h13.21ZM1086,188.4V136.26c0-17.09-11.1-27.65-29.77-27.65-15,0-26.6,9-29.24,22.19h13c2.47-7.22,7.75-10.74,16-10.74,11.27,0,17.26,7,17.26,16.73v9.86c-3.35-3-11.63-6.34-19.73-6.34-16.73,0-29.94,9.86-29.94,24.48,0,15.5,13.21,25,29.06,25,9.34,0,17.61-4.05,20.61-7.22v5.81H1086ZM1073.31,169c-2.29,5.81-10.22,9.69-18.32,9.69-9.51,0-18.67-4.4-18.67-13.92,0-9.34,9.16-13.56,18.67-13.56,8.1,0,16,3.88,18.32,9.69Zm48.44,10.22c3.88,5.64,12.33,10.74,22,10.74,22.9,0,35.23-18.5,35.23-40.69,0-22-12.33-40.69-35.23-40.69-9.69,0-18.14,5.11-22,10.74V73.91h-13.39V188.4h13.39Zm0-45.8a22.51,22.51,0,0,1,20.08-12.86c15,0,23.78,12.15,23.78,28.71S1156.81,178,1141.83,178a22.51,22.51,0,0,1-20.08-12.86Z"/></svg>