<svg width="152px" height="160px" viewBox="0 0 152 146" style="z-index: 1; position: relative">
    <g stroke="none" stroke-width="1" fill="none" fill-rule="evenodd">
        <g id="invoicing-hero" transform="translate(-18.000000, -5.000000)">
            <g transform="translate(18.000000, 3.000000)">
                <path d="M106.949991,39 L111,39 L111,107 L57,107 L57,39 L62.0500091,39 L62.0500091,39 C62.2816442,40.1411202 63.290521,41 64.5,41 C65.709479,41 66.7183558,40.1411202 66.9499909,39 L70.0500091,39 C70.2816442,40.1411202 71.290521,41 72.5,41 C73.709479,41 74.7183558,40.1411202 74.9499909,39 L74.9499909,39 L78.0500091,39 L78.0500091,39 C78.2816442,40.1411202 79.290521,41 80.5,41 C81.709479,41 82.7183558,40.1411202 82.9499909,39 L86.0500091,39 C86.2816442,40.1411202 87.290521,41 88.5,41 C89.709479,41 90.7183558,40.1411202 90.9499909,39 L90.9499909,39 L94.0500091,39 L94.0500091,39 C94.2816442,40.1411202 95.290521,41 96.5,41 C97.709479,41 98.7183558,40.1411202 98.9499909,39 L102.050009,39 C102.281644,40.1411202 103.290521,41 104.5,41 C105.709479,41 106.718356,40.1411202 106.949991,39 L106.949991,39 Z" stroke="#1E2024" fill="#FFFFFF"></path>
                <rect fill="#464C58" x="66" y="88" width="36" height="1"></rect>
                <rect fill="#464C58" x="88" y="96" width="14" height="1"></rect>
                <rect fill="#464C58" x="66" y="80" width="36" height="1"></rect>
                <text class="i-paid-txt" font-size="10" font-weight="260" fill="#121316">
                  <tspan x="65" y="100">Paid</tspan>
                </text>
                <circle class="in-circle-status" cx="74.5" cy="60.5" r="8.5"></circle>
            </g>
        </g>
    </g>
</svg>