<svg width="150px" height="160px" viewBox="0 0 150 135">
    
  <g>
      <path d="M107.014999,103.899982 L107.014999,104 L54.0149994,104 C51.2535756,104 49.0149994,101.761424 49.0149994,99 L49.0149994,80 L103.014999,80 L103.014999,97.5 L103.014999,99 C103.014999,101.418958 104.732759,103.436712 107.014999,103.899982 Z" stroke="#1E2024" fill="#AAB0BB" transform="translate(78, 92) scale(-1, 1) translate(-78, -92)" />
    
      <path d="M100.014999,103.899982 L100.014999,104 L47.0149994,104 C44.2535756,104 42.0149994,101.761424 42.0149994,99 L42.0149994,33 L96.0149994,33 L96.0149994,97.5 L96.0149994,99 C96.0149994,101.418958 97.7327591,103.436712 100.014999,103.899982 Z" stroke="#1E2024" fill="#FFFFFF" />
    
      <rect class="tm-numb-point" stroke="#1E2024" fill="#ECEEF2" x="52" y="71" width="7" height="7" rx="3" />
    
      <path class="tm-checked" transform="translate(55, 74) rotate(-45) translate(-55, -47)" fill="#05C672" d="M51.0149994,48 L59.0149994,48 L59.0149994,49 L51.0149994,49 L51.0149994,48 Z M51.0149994,45 L52.0149994,45 L52.0149994,48 L51.0149994,48 L51.0149994,45 Z" />
      <path class="tm-checked i--delay" transform="translate(55, 86) rotate(-45) translate(-55, -47)" fill="#05C672" d="M51.0149994,48 L59.0149994,48 L59.0149994,49 L51.0149994,49 L51.0149994,48 Z M51.0149994,45 L52.0149994,45 L52.0149994,48 L51.0149994,48 L51.0149994,45 Z" />
      <rect class="tm-numb-point i--delay" stroke="#1E2024" fill="#ECEEF2" x="52" y="84" width="7" height="7" rx="3" />
    
      <rect fill="#464C58" x="65" y="48" width="20" height="1" />
      <rect fill="#464C58" x="65" y="61" width="20" height="1" />
      <!--  -->
      <path d="M51.0149994,61 L59.0149994,61 L59.0149994,62 L51.0149994,62 L51.0149994,61 Z M51.0149994,58 L52.0149994,58 L52.0149994,61 L51.0149994,61 L51.0149994,58 Z" fill="#05C672" transform="translate(55.014999, 60.000000) rotate(-45.000000) translate(-55.014999, -60.000000)" />
    
      <path d="M51.0149994,48 L59.0149994,48 L59.0149994,49 L51.0149994,49 L51.0149994,48 Z M51.0149994,45 L52.0149994,45 L52.0149994,48 L51.0149994,48 L51.0149994,45 Z" fill="#05C672" transform="translate(55.014999, 47.000000) rotate(-45.000000) translate(-55.014999, -47.000000)" />
    
      <rect fill="#464C58" x="65" y="87" width="20" height="1" />
      <path d="M1.01499939,83 L9.01499939,83 L9.01499939,84 L1.01499939,84 L1.01499939,83 Z M1.01499939,80 L2.01499939,80 L2.01499939,83 L1.01499939,83 L1.01499939,80 Z" fill="#121316" transform="translate(5.014999, 82.000000) rotate(-45.000000) translate(-5.014999, -82.000000)" />
    
      <path d="M141.014999,98 L149.014999,98 L149.014999,99 L141.014999,99 L141.014999,98 Z M141.014999,95 L142.014999,95 L142.014999,98 L141.014999,98 L141.014999,95 Z" fill="#121316" transform="translate(145.014999, 97.000000) rotate(-45.000000) translate(-145.014999, -97.000000)" />
    
      <path d="M111.014999,66 L119.014999,66 L119.014999,67 L111.014999,67 L111.014999,66 Z M111.014999,63 L112.014999,63 L112.014999,66 L111.014999,66 L111.014999,63 Z" fill="#121316" transform="translate(115.014999, 65.000000) rotate(-45.000000) translate(-115.014999, -65.000000) " />
    
      <path d="M48.0149994,121 L56.0149994,121 L56.0149994,122 L48.0149994,122 L48.0149994,121 Z M48.0149994,118 L49.0149994,118 L49.0149994,121 L48.0149994,121 L48.0149994,118 Z" fill="#121316" transform="translate(52.014999, 120.000000) rotate(-45.000000) translate(-52.014999, -120.000000)" />
    
      <path d="M114.014999,28 L125.014999,28 L125.014999,29 L114.014999,29 L114.014999,28 Z M114.014999,24 L115.014999,24 L115.014999,28 L114.014999,28 L114.014999,24 Z" fill="#121316" transform="translate(119.514999, 26.500000) rotate(-45.000000) translate(-119.514999, -26.500000)" />
    
      <path d="M54.0149994,8 L65.0149994,8 L65.0149994,9 L54.0149994,9 L54.0149994,8 Z M54.0149994,4 L55.0149994,4 L55.0149994,8 L54.0149994,8 L54.0149994,4 Z" fill="#121316" transform="translate(59.514999, 6.500000) rotate(-45.000000) translate(-59.514999, -6.500000)" />
  </g>
            
</svg>